<svg xmlns="http://www.w3.org/2000/svg" enable-background="new 0 0 50 50" viewBox="0 0 50 50"><path fill="#EE9C35" d="M44.6325417,38.5557098c0.032959-0.1023216,1.705452-22.3038292-9.7920876-29.2820549
		c-3.6669846-2.1844745-7.7649918-2.2849174-12.0000019-1.4500122c-1.6993885,0.3398781-3.636013,0.4644423-5.2000122,1.4100342
		C9.7530375,14.0291834,5.7575355,27.3925629,5.9389501,35.3437538c0.0222311,0.9743538,0.2988248,1.7287025,0.4356418,2.6322708
		c0.3265901,2.1568718-2.2598429-0.6492043-2.634239-1.3458557C-0.4078771,28.9113941,6.6665192,7.881566,17.6704693,4.603672
		c1.5-0.4500122,3.1599731-0.5800171,4.6699829-0.8200073c12.9833546-2.1222391,21.3811626,2.5388012,24.4946575,20.1499138
		c0.9673729,5.4718189,0.6148109,3.5920391,0.1792755,9.2042999C46.8505592,35.2489395,46.5588264,37.5384483,44.6325417,38.5557098
		z"/><path fill="#A8A8A8" d="M42.6599846,40.1794167c-0.4489708,0.3968506-1.1667938,0.4441452-1.7865829,0.7419395
		c-1.9534454,0.9440804-1.4942398,4.4808044-5.5470123,4.7542343c-2.2478828,0.3097382-1.5388756-1.4896889-1.3040466-2.8888054
		c0.2667618-1.7018089,0.5461578-3.3944359,0.8248787-5.0970535c1.7620354-10.6330395,1.2800026-10.4136925,1.9474182-11.0862885
		c0.7002144-0.6999588,2.0631714-0.3218632,2.5727119,0.1271572c1.7703247,1.1020412,1.5038147,3.2778988,2.2483063,5.040081
		c0.4555817,1.0846348,1.5647964,1.9418392,1.9942398,3.0426426C43.9726715,35.7710571,43.8647575,39.098732,42.6599846,40.1794167z
		"/><path fill="#494949" d="M39.8252792 24.3841019c-.0223694.1099491-4.235672 21.9377022-4.7679749 23.5988426-3.7228241.51297-2.6376801-5.3275299-2.0041962-8.889595 1.8698082-10.5138893 1.9742088-11.9119225 3.0268745-13.8770733.345974-.6458721.6174583-1.0340424 1.4609947-1.229229C37.8258324 23.9211349 39.9178047 23.9292278 39.8252792 24.3841019zM42.8923111 40.1637421c-.2246361.2356873-.527874.3463173-.8417702.4476929-.0396309-2.2825241.3125076-4.7737083.7938118-7.2498703.3116417.4600449.6140366.930809.7894096 1.4501495C44.0749245 36.1558151 43.9032135 39.0870094 42.8923111 40.1637421z"/><path fill="#A8A8A8" d="M7.8703141,39.179882c0.4489713,0.3968506,1.1667933,0.4441452,1.7865825,0.7419434
		c1.9534435,0.9440804,1.4942417,4.4808006,5.5470142,4.7542305c2.2478828,0.3097382,1.5388718-1.4896889,1.3040466-2.8888016
		c-0.2667656-1.7018127-0.5461597-3.3944397-0.8248806-5.0970573c-0.5509396-3.3246536-1.0655575-6.6568317-1.4726152-9.9918461
		c-0.2366934-1.8903484-2.2080889-1.7070084-3.047513-0.9672832c-2.2135525,1.3779507-0.9056683,3.5700836-3.3223796,6.6413956
		c-0.3646979,0.4564667-0.7182622,0.9237785-0.920167,1.44133C6.4071236,35.1688538,6.6655412,38.0991974,7.8703141,39.179882z"/><path fill="#494949" d="M10.70502 23.3845692c.0997639.4903965.1848288.9797249.284503 1.4701157.2996769 1.5504112 4.0138979 20.6633434 4.4834709 22.1287251 4.7283154.651516 2.0420036-8.6769943.4696198-17.5184879-.3781872-2.1265335-.9823608-6.0213528-2.9532928-6.4774075C12.7044668 22.9216022 10.6124926 22.9296951 10.70502 23.3845692zM6.9976726 37.9583969c.1572623.491684.3691068.9169426.640316 1.2058105.2246346.2356911.5278735.3463173.8417687.4476967.0411673-2.371048-.3387785-4.9088707-.7938108-7.2498741-.3116426.4600487-.614037.930809-.7894087 1.4501534C6.5811381 34.7731094 6.5770011 36.6170425 6.9976726 37.9583969z"/><path fill="#A8A8A8" d="M34.4003143,3.4934342c0.3102264,0.1566916,0.4781151,0.5146458,0.4023056,0.8538311
			c-2.188755,9.7931461-0.7383842,0.912426-11.9621677,4.1175451c-0.9923,0.2874718-2.0476017,0.4654093-3.0658798,0.8309374
			c-0.4271107,0.1533194-0.896059-0.1000109-1.0064831-0.5401669c-1.5455189-6.1605091-1.8220634-4.9008455,3.5723629-6.1427307
			C24.5381432,2.0924995,29.7659626,1.1526893,34.4003143,3.4934342z"/><path d="M47.3274841,23.8465881C45.4537659,13.2477722,41.5592346,6.8511047,35.3019714,4.2190247
			c0.012207-0.4816895-0.2383423-0.9507446-0.6761475-1.1717529c-3.3798847-1.7075197-7.7729511-2.0151367-12.3974628-0.921875
			c-2.8860474,0.6654663-4.1654663,0.6038208-4.7114258,1.4658203c-0.112793,0.1781006-0.1768188,0.3768311-0.2034302,0.6074829
			C12.400054,5.7673645,7.8529954,10.8296814,4.8108811,18.1459045C1.79135,25.4066467,1.1844164,32.9305725,3.3001392,36.8666077
			c0.2182617,0.4072266,1.8012693,2.4106445,2.8061521,2.4101563c0.2285156,0,0.4335938-0.0917969,0.5766602-0.2587891
			C6.73947,38.952301,6.775908,38.8767395,6.8083787,38.7999573c0.1387329,0.2764893,0.2913208,0.5213013,0.4673462,0.7087402
			c0.2709708,0.2844124,0.9315295,0.6623611,1.3188481,0.5662842c1.1066465,0.3410721,1.3524303,0.4114914,2.1750488,1.9512939
			c0.6600342,1.2199707,1.460022,2.7000122,3.75,3.0799561c0.2299805,1.0500488,0.4000244,1.7800293,0.4799805,2.0300293
			c0.0600586,0.1799927,0.210022,0.3200073,0.4100342,0.3400269c0.1799927,0.0299683,0.3499756,0.039978,0.5100098,0.039978
			c0.7899771,0,1.419982-0.2800293,1.8800039-0.8300171c1.6199951-1.9699707,0.5999756-7.1499634-0.5700073-13.1499634
			c-1.1655884-5.9138794-1.473937-11.0800171-4.7800283-11.0800171c-2.8263712,0-2.3197041,0.7201214-1.8399658,3.0499878
			c0,0,0,0,0,0.0100098c-2.0286331,1.5118656-0.9665871,3.6291409-3.0401006,6.3765869
			c-0.4071398,0.100729-0.9656453,1.2901535-1.1052246,1.6694946c0.4363403-8.9771729,5.4251714-21.3945313,12.0616455-24.217041
			c0.2355957,0.3000488,0.5908203,0.4954224,0.9914551,0.4954224c0.1455078,0,0.2885742-0.0249023,0.4262695-0.0742188
			c0.7201538-0.2589111,5.2967529-1.5395508,7.5776367-1.5395508c3.2779541,0,4.4175415,1.3841553,5.4511738,1.3828125
			c0.3247681,0,0.5800171-0.1018677,0.8022461-0.3386841c8.2348022,4.0224609,10.3953857,16.7286987,10.4563599,25.8962402
			c-0.0355225-0.1846924-0.0741577-0.3638916-0.1238403-0.5150757c-0.1967773-0.5839844-0.5273438-1.0961914-0.8486328-1.5708008
			c-0.0731812-0.1082153-0.1877441-0.1638794-0.3103638-0.190918c-1.9098511-2.4035645-1.0203857-4.8898315-3.027771-6.3718262
			c0.1372681-0.7069702,0.2579346-1.3294678,0.3557129-1.8347168l0.0385742-0.199707
			c0.0395508-0.1923828-0.0087891-0.3837891-0.1357422-0.5390625c-0.0986328-0.1206055-0.3984375-0.487793-2.1000977-0.487793
			c-0.2124023,0-0.4975586,0.0073242-0.6508789,0.0424805c-1.0527344,0.2436523-1.4194336,0.7905273-1.7890625,1.4799805
			c-0.9165039,1.7114258-1.1518555,3.0551758-2.2832031,9.5141602c-0.2250977,1.2836914-0.4858398,2.7729492-0.7949219,4.5117188
			l-0.0244141,0.1367188c-0.5136719,2.887207-1.2177753,6.8422852,0.2114258,8.5483398
			c0.4580078,0.5463867,1.0874023,0.8237305,1.8701172,0.8237305c1.0105591,0,0.8843384-0.0545654,1.3989868-2.4431152
			c2.2630615-0.3898315,3.0892944-1.8419189,3.7411499-3.0461426c0.864502-1.597168,1.0878906-1.6095581,2.1821899-1.9494019
			c0.4480591,0.105896,1.354248-0.2514648,1.8891602-1.5309448c0.6627808-0.7635498,3.1966553-0.1124268,3.6835327-6.3682861
			c0.1137695-1.4658203,0.2216797-2.4174805,0.3017578-3.1230469
			C48.0491638,27.9916077,48.0398865,27.8753967,47.3274841,23.8465881z M34.6673279,47.5140686
			c-0.5126953,0.0131836-0.8813477-0.1416016-1.152832-0.4658203c-1.1293945-1.3481445-0.4458008-5.1889648,0.0063477-7.730957
			l0.0244141-0.1367188c0.3095703-1.7392578,0.5703125-3.2294922,0.7954102-4.5136719
			c1.1347656-6.4780273,1.3393555-7.6450195,2.1801758-9.2143555c0.3178711-0.5932617,0.4975586-0.831543,1.1259766-0.9765625
			c0.0727539-0.0131836,0.2333984-0.0185547,0.4321289-0.0185547c0.5517578,0,0.9736328,0.0522461,1.2021484,0.105957
			C37.3670349,34.4481506,35.2205505,45.3016663,34.6673279,47.5140686z M41.5509338,40.1485291
			c-3.1959229,0.9689331-2.3066406,4.0739746-5.3087158,4.8632813c0.9257813-4.4069824,2.4785156-12.3256226,3.4484863-17.3110352
			c0.5169067,0.6227417,0.7213745,1.44104,0.9243774,2.3694458c0.4249268,1.9514771,0.6589355,2.3249512,1.5893555,3.4931641
			c0.026001,0.0326538,0.0504761,0.0643921,0.0762329,0.0968018C41.79422,36.2425842,41.5591125,38.3296814,41.5509338,40.1485291z
			 M42.5657654,39.5011292c0.0458374-1.3540039,0.2108765-2.8669434,0.513916-4.6408081
			c0.0198364,0.0435791,0.045105,0.0862427,0.0622559,0.1303101C43.4292908,35.7479553,43.3476257,38.3583679,42.5657654,39.5011292
			z M12.8796072,23.4762878c1.8146362,0.4187012,2.2060547,4.3945923,3.3600454,10.25
			c1.039978,5.2699585,2.0999756,10.7199707,0.7799683,12.3199463c-0.2600098,0.3200073-0.6099854,0.4700317-1.0999746,0.4700317
			h-0.0599976c-0.7543335-3.1245728-4.2073975-20.8040771-4.6100464-22.9500122
			C11.6924734,23.4507141,12.5958548,23.4356384,12.8796072,23.4762878z M10.8296194,26.6662903
			c0.7300415,3.7199707,2.460022,12.5799561,3.4700317,17.3599854c-1.5100098-0.3699951-2.0700073-1.4000244-2.6500244-2.4800415
			c-0.9607878-1.7687073-1.4232798-2.0280418-2.6727905-2.4031982c-0.0130005-2.3349609-0.3946533-4.7329102-0.7263184-6.4854736
			C10.3175058,30.008337,9.7960596,27.8346672,10.8296194,26.6662903z M7.4402757,33.7865295
			c0.2548828,1.4775391,0.4990234,3.2592773,0.5371094,5.0078125c-0.1914063-0.2163086-0.3652344-0.5566406-0.5024414-0.9858398
			C7.1304526,36.7113571,7.0236516,34.7769966,7.4402757,33.7865295z M5.4388108,35.3553772
			c0.015625,0.6689453,0.140625,1.2368164,0.2617188,1.7856445c0.0654297,0.2954102,0.1313477,0.5932617,0.1796875,0.909668
			c0.0073242,0.0493164,0.012207,0.0922852,0.0161133,0.1298828c-0.5214844-0.3227539-1.4829102-1.3544922-1.715332-1.7871094
			C2.2000415,32.707428,2.824065,25.5282288,5.734221,18.5296936c2.8361211-6.8206787,7.1647954-11.7417603,11.6497803-13.2975464
			c0.1326294,0.7424927,0.3914185,1.6578369,0.781189,3.1831665C10.5903616,11.5897522,5.2267747,26.0432434,5.4388108,35.3553772z
			 M32.9725037,8.6097717c-0.5803833,0-2.0723896-1.3828125-5.4511738-1.3828125
			c-2.3700562,0-7.1611328,1.3271484-7.9155273,1.5981445c-0.1328125,0.0454102-0.3095703-0.0175781-0.3530273-0.190918
			c-0.5997925-2.3913574-1.1434937-4.1088867-0.890625-4.5083008c0.2402344-0.3793335,1.7587891-0.4881592,4.09375-1.0268555
			c1.7353516-0.4106445,3.4404297-0.6186523,5.0673828-0.6186523c2.4960938,0,4.7338886,0.4907227,6.6518574,1.4594727
			c0.1054688,0.0532227,0.1655273,0.1816406,0.1396484,0.2983398C33.9021912,6.0829163,33.337738,8.6097717,32.9725037,8.6097717z
			 M46.8211365,29.9408264c-0.0810547,0.7133789-0.1899414,1.6762695-0.3051758,3.1586914
			c-0.1357422,1.7456055-0.3515625,3.394043-1.328125,4.4189453c0.4415894-10.1520386-1.8184204-24.6196289-10.9217529-29.1187134
			c0.2662354-0.6873779,0.5203247-1.7116699,0.8565674-3.1973877c5.8451538,2.5267944,9.4119873,8.5895996,11.220459,18.8180542
			C47.0433044,27.9833069,47.0433044,27.9833069,46.8211365,29.9408264z"/></svg>